<svg xmlns="http://www.w3.org/2000/svg" version="1.0" width="800.000000pt" height="800.000000pt" viewBox="0 0 800.000000 800.000000" preserveAspectRatio="xMidYMid meet">
<g transform="translate(0.000000,800.000000) scale(0.100000,-0.100000)" fill="#ffffff" stroke="none">
<path d="M2760 7301 c-341 -95 -584 -410 -631 -816 -6 -57 -9 -406 -7 -945 l3 -855 307 -3 308 -2 2 872 3 873 29 58 c21 44 40 66 74 88 l46 29 2086 -2 2087 -3 36 -28 c20 -15 49 -49 64 -75 l28 -47 3 -2420 c2 -1723 -1 -2433 -8 -2464 -14 -56 -41 -95 -93 -132 l-40 -29 -2079 0 c-2020 0 -2080 1 -2116 19 -45 23 -62 42 -93 101 l-24 45 -3 883 -3 882 -309 0 -310 0 0 -837 c0 -461 4 -888 9 -949 21 -248 106 -451 256 -612 117 -126 243 -203 387 -237 95 -22 4301 -22 4396 0 263 62 488 281 590 575 61 176 57 0 57 2735 l0 2510 -22 92 c-73 305 -254 543 -499 654 -137 63 13 59 -2329 58 -2033 0 -2143 -1 -2205 -18z"/>
<path d="M3805 6418 c-174 -61 -288 -341 -242 -595 8 -44 27 -108 42 -142 15 -33 204 -316 420 -628 l393 -568 -1987 -5 -1986 -5 -46 -27 c-89 -52 -160 -158 -194 -289 -25 -93 -16 -299 15 -388 45 -127 143 -234 238 -261 25 -6 693 -10 1999 -10 l1962 0 -102 -147 c-57 -82 -134 -193 -172 -248 -38 -55 -83 -120 -100 -145 -195 -278 -415 -601 -427 -625 -109 -211 -74 -530 74 -691 115 -125 294 -126 403 -1 20 23 125 170 232 327 108 157 316 458 463 670 147 212 293 423 325 470 425 616 425 615 450 722 32 135 11 337 -45 448 -16 30 -662 973 -993 1448 -18 26 -114 164 -212 307 -204 295 -240 339 -310 371 -55 26 -145 31 -200 12z"/>
</g>
</svg>
