<svg xmlns="http://www.w3.org/2000/svg" version="1.0" width="800.000000pt" height="800.000000pt" viewBox="0 0 800.000000 800.000000" preserveAspectRatio="xMidYMid meet">
<g transform="translate(0.000000,800.000000) scale(0.100000,-0.100000)" fill="#ef4444" stroke="none">
<path d="M2191 7744 c-284 -76 -496 -281 -598 -579 -56 -164 -53 -1 -53 -3041 l0 -2803 -462 -3 -463 -3 -53 -28 c-105 -55 -182 -147 -221 -265 -23 -68 -28 -213 -10 -291 27 -118 115 -235 221 -292 l63 -34 3385 0 3385 0 55 30 c109 60 194 168 226 290 18 67 18 197 -1 270 -32 123 -116 230 -225 290 l-55 30 -462 3 -463 3 -3 2827 c-3 2675 -4 2831 -21 2901 -49 206 -131 357 -261 485 -86 85 -156 133 -253 172 -143 57 -23 54 -1927 53 -1494 0 -1758 -2 -1804 -15z m3198 -3251 c151 -73 251 -260 238 -443 -21 -288 -261 -479 -509 -406 -144 42 -263 194 -289 366 -37 242 124 486 341 518 72 10 152 -2 219 -35z"/>
</g>
</svg>
