<svg xmlns="http://www.w3.org/2000/svg" version="1.0" width="800.000000pt" height="800.000000pt" viewBox="0 0 800.000000 800.000000" preserveAspectRatio="xMidYMid meet">
<g transform="translate(0.000000,800.000000) scale(0.100000,-0.100000)" fill="#F5F6F7" stroke="none">
<path d="M0 4405 l0 -2005 2023 7 c1113 3 2031 4 2039 1 13 -5 12 -19 -5 -110 -16 -83 -21 -145 -21 -318 0 -230 6 -294 55 -503 81 -349 240 -631 507 -901 307 -310 680 -497 1122 -562 141 -20 477 -15 608 10 320 60 611 189 867 385 91 69 260 236 330 326 134 172 260 399 318 575 30 89 71 264 89 375 26 163 11 536 -28 689 -6 25 -5 26 45 26 l51 0 0 2005 0 2005 -4000 0 -4000 0 0 -2005z m6593 1512 c19 -241 120 -461 292 -632 171 -172 385 -271 626 -291 l79 -7 0 -593 0 -594 -39 0 c-122 0 -328 -58 -448 -127 l-77 -43 -145 73 c-313 157 -638 229 -971 214 -688 -31 -1298 -406 -1632 -1004 l-63 -112 -1406 -1 -1406 0 -7 79 c-20 239 -120 455 -291 626 -172 173 -389 273 -632 292 l-83 6 0 597 0 597 83 6 c492 38 882 426 923 920 l7 77 2592 0 2592 0 6 -83z m-346 -2411 c253 -45 483 -144 684 -296 775 -581 840 -1716 138 -2384 -478 -455 -1189 -562 -1776 -268 -309 156 -571 419 -714 719 -208 436 -208 931 1 1367 138 290 397 555 689 704 206 105 370 153 606 176 70 7 290 -4 372 -18z"/>
<path d="M3817 5385 c-399 -76 -701 -359 -799 -751 -33 -133 -31 -351 4 -485 48 -177 133 -325 263 -454 132 -133 273 -214 455 -263 83 -22 115 -25 250 -25 136 0 167 3 255 26 354 95 627 374 717 734 33 132 31 350 -4 484 -78 291 -287 539 -557 662 -164 74 -412 104 -584 72z"/>
<path d="M5860 2981 c-31 -11 -67 -33 -82 -50 -26 -29 -28 -37 -28 -121 l0 -89 -32 -5 c-18 -3 -76 -10 -128 -17 -271 -33 -515 -137 -607 -257 -18 -24 -40 -69 -49 -99 -69 -236 160 -403 681 -496 l130 -24 3 -206 c1 -114 0 -207 -2 -207 -31 0 -263 38 -376 62 -226 47 -356 32 -419 -48 -25 -32 -26 -55 -6 -94 24 -47 95 -75 286 -114 146 -30 453 -76 504 -76 12 0 15 -18 15 -94 l0 -94 35 -31 c94 -82 302 -80 391 5 33 31 34 33 34 117 l0 86 48 5 c314 37 527 108 647 218 68 62 97 108 111 178 44 223 -160 374 -631 465 -71 14 -140 28 -152 31 -23 4 -23 5 -23 212 l0 208 163 -19 c89 -10 191 -16 226 -13 221 18 263 197 59 250 -35 8 -135 23 -223 31 -88 9 -175 18 -192 21 l-33 6 0 80 c0 51 -5 89 -15 108 -39 76 -217 113 -335 71z m-110 -707 c0 -162 -1 -175 -17 -170 -10 2 -34 7 -53 11 -78 15 -207 59 -245 84 -35 23 -40 32 -43 69 -3 37 1 47 30 76 39 39 120 71 227 90 42 8 82 15 89 15 9 1 12 -40 12 -175z m672 -580 c100 -33 143 -70 135 -118 -8 -52 -34 -83 -91 -111 -54 -26 -169 -55 -223 -55 l-33 0 0 169 0 169 68 -14 c37 -8 102 -26 144 -40z"/>
</g>
</svg>
